<svg width="16" height="16" viewBox="0 0 16 16" fill="none" xmlns="http://www.w3.org/2000/svg">
<g clip-path="url(#clip0_867_1459)">
<path d="M8.10141 4.59733C7.46941 4.59733 6.49141 3.87867 5.46141 3.904C4.10141 3.922 2.85474 4.69267 2.15407 5.91333C0.74274 8.36333 1.79007 11.982 3.16674 13.9733C3.84207 14.9427 4.63874 16.0333 5.69474 15.9993C6.70807 15.956 7.08807 15.3413 8.31807 15.3413C9.53874 15.3413 9.88474 15.9993 10.9581 15.9733C12.0494 15.956 12.7421 14.9867 13.4087 14.008C14.1794 12.8827 14.4994 11.7913 14.5167 11.7313C14.4907 11.7227 12.3954 10.9173 12.3701 8.49333C12.3527 6.46667 14.0234 5.49733 14.1014 5.454C13.1487 4.06067 11.6861 3.90467 11.1747 3.87C9.84141 3.766 8.72474 4.59733 8.10141 4.59733ZM10.3534 2.55333C10.9154 1.87867 11.2867 0.935333 11.1834 0C10.3787 0.0346667 9.40874 0.536667 8.82874 1.212C8.30874 1.80933 7.85941 2.77067 7.98007 3.688C8.87207 3.75733 9.79007 3.22933 10.3527 2.554" fill="#09090B"/>
</g>
<defs>
<clipPath id="clip0_867_1459">
<rect width="16" height="16" fill="white"/>
</clipPath>
</defs>
</svg>
