<svg width="16" height="16" viewBox="0 0 16 16" fill="none" xmlns="http://www.w3.org/2000/svg">
<path d="M14.0164 5.29785C14.2993 5.83379 14.3581 6.55902 14.1755 7.49609C13.9084 8.86847 13.3316 9.73686 12.5798 10.2715C11.8174 10.8136 10.8142 11.0556 9.6228 11.0557H9.23608C8.96874 11.0553 8.70998 11.1507 8.50659 11.3242C8.31253 11.4899 8.18133 11.7169 8.13354 11.9668C8.11868 12.03 8.07896 12.2798 8.03198 12.5752C7.98224 12.8879 7.91836 13.2921 7.85522 13.6953C7.79204 14.0989 7.72927 14.5024 7.67944 14.8154C7.65454 14.9719 7.63333 15.1051 7.61694 15.2041C7.60874 15.2537 7.60164 15.2937 7.59644 15.3232C7.59039 15.3576 7.58863 15.3665 7.5896 15.3623L7.58569 15.3789L7.58276 15.3965C7.57313 15.4568 7.52174 15.5 7.46167 15.5H5.02222L5.09253 15.0576H5.42944L5.49585 14.6357L6.27026 9.7207H7.62378C9.41146 9.7207 10.8997 9.29794 12.03 8.40723C12.981 7.65784 13.6363 6.60851 14.0164 5.29785ZM3.99878 0.5H8.97241C10.6486 0.500067 11.7961 0.860355 12.3894 1.53613C12.6782 1.86498 12.8532 2.19687 12.9412 2.57129C13.0305 2.95153 13.0367 3.40461 12.946 3.98535C12.9309 4.0797 12.9161 4.16795 12.8982 4.25684V4.26074C12.5901 5.84348 11.9225 6.85278 11.0457 7.47656C10.158 8.10791 8.99456 8.3877 7.62378 8.3877H6.16382C5.60398 8.38775 5.12601 8.76998 4.99194 9.30078L4.97046 9.40918L4.28979 13.7246H1.73218L3.78979 0.678711C3.80605 0.575822 3.89536 0.5 3.99878 0.5Z" fill="#09090B" stroke="#09090B"/>
</svg>
