<svg width="20" height="20" viewBox="0 0 20 20" fill="none" xmlns="http://www.w3.org/2000/svg">
<path fill-rule="evenodd" clip-rule="evenodd" d="M8.59125 1.2502H11.3787C11.7987 1.24395 12.21 1.38145 12.5412 1.6402C12.875 1.9027 13.1062 2.27145 13.1912 2.68645L13.435 3.8552C13.5408 3.91187 13.645 3.9702 13.7475 4.0302L14.9287 3.6427C15.1718 3.56427 15.4284 3.537 15.6824 3.5626C15.9365 3.5882 16.1825 3.66612 16.405 3.79145C16.68 3.94645 16.9112 4.16895 17.0725 4.44145L18.4787 6.76145C18.7061 7.12095 18.7957 7.55052 18.7312 7.97093C18.6666 8.39134 18.4522 8.77423 18.1275 9.04895H18.125L17.1975 9.8402V10.1627L18.1137 10.979C18.4322 11.2492 18.6443 11.6237 18.7123 12.0358C18.7803 12.4479 18.6997 12.8707 18.485 13.229L17.1225 15.554V15.5565C16.9604 15.8278 16.7305 16.0523 16.4555 16.2081C16.1805 16.3639 15.8698 16.4456 15.5537 16.4452C15.3583 16.4463 15.1638 16.4167 14.9775 16.3577L14.9712 16.3552L13.8 15.969C13.6958 16.0306 13.59 16.0894 13.4825 16.1452L13.24 17.3127C13.1544 17.7279 12.924 18.0992 12.59 18.3602C12.2579 18.62 11.8466 18.7577 11.425 18.7502H8.615C8.19427 18.7571 7.78391 18.6195 7.4525 18.3602C7.11872 18.0995 6.88837 17.7287 6.8025 17.314L6.55875 16.144C6.4532 16.0881 6.34901 16.0298 6.24625 15.969L5.065 16.3565C4.82199 16.4349 4.56537 16.4622 4.31131 16.4366C4.05724 16.411 3.81123 16.333 3.58875 16.2077C3.31337 16.0541 3.08319 15.8308 2.92125 15.5602L1.51375 13.2352C1.29551 12.883 1.20833 12.4651 1.26754 12.055C1.32675 11.6449 1.52854 11.2688 1.8375 10.9927L2.77125 9.8152L1.88 9.02145C1.56114 8.75092 1.34886 8.37583 1.28108 7.96319C1.2133 7.55056 1.29444 7.12727 1.51 6.76895L1.5125 6.76645L2.92125 4.44145C3.08103 4.17269 3.30762 3.94983 3.57901 3.79454C3.85039 3.63924 4.15733 3.55679 4.47 3.5552C4.65833 3.5452 4.84416 3.56312 5.0275 3.60895L5.055 3.61645L6.22375 4.0277C6.32625 3.9677 6.43042 3.9102 6.53625 3.8552L6.77875 2.6877C6.86435 2.27251 7.09472 1.90125 7.42875 1.6402C7.75875 1.38145 8.17125 1.24395 8.59125 1.2502ZM10 7.5002C9.33696 7.5002 8.70107 7.7636 8.23223 8.23244C7.76339 8.70128 7.5 9.33716 7.5 10.0002C7.5 10.6632 7.76339 11.2991 8.23223 11.768C8.70107 12.2368 9.33696 12.5002 10 12.5002C10.663 12.5002 11.2989 12.2368 11.7678 11.768C12.2366 11.2991 12.5 10.6632 12.5 10.0002C12.5 9.33716 12.2366 8.70128 11.7678 8.23244C11.2989 7.7636 10.663 7.5002 10 7.5002ZM6.25 10.0002C6.25 9.00564 6.64509 8.05182 7.34835 7.34855C8.05161 6.64529 9.00544 6.2502 10 6.2502C10.9946 6.2502 11.9484 6.64529 12.6516 7.34855C13.3549 8.05182 13.75 9.00564 13.75 10.0002C13.75 10.9948 13.3549 11.9486 12.6516 12.6519C11.9484 13.3551 10.9946 13.7502 10 13.7502C9.00544 13.7502 8.05161 13.3551 7.34835 12.6519C6.64509 11.9486 6.25 10.9948 6.25 10.0002Z" fill="#7E57C2"/>
</svg>
