<svg width="20" height="20" viewBox="0 0 20 20" fill="none" xmlns="http://www.w3.org/2000/svg">
<path d="M7.66667 6.875H12.3333L10.125 2.5H9.875L7.66667 6.875ZM9.375 16.75V8.125H2.18751L9.375 16.75ZM10.625 16.75L17.8125 8.125H10.625V16.75ZM13.7083 6.875H18.0208L16.2917 3.41667C16.1389 3.13889 15.9342 2.91667 15.6775 2.75C15.4208 2.58333 15.1325 2.5 14.8125 2.5H11.5417L13.7083 6.875ZM1.97917 6.875H6.29167L8.45834 2.5H5.1875C4.86806 2.5 4.58 2.58333 4.32334 2.75C4.06667 2.91667 3.86167 3.13889 3.70834 3.41667L1.97917 6.875Z" fill="#7E57C2"/>
</svg>
