<svg width="20" height="20" viewBox="0 0 20 20" fill="none" xmlns="http://www.w3.org/2000/svg">
<path d="M4.16667 4.58398C3.55888 4.58398 2.97598 4.82543 2.54621 5.2552C2.11644 5.68497 1.875 6.26786 1.875 6.87565V13.1257C1.875 13.7334 2.11644 14.3163 2.54621 14.7461C2.97598 15.1759 3.55888 15.4173 4.16667 15.4173H11.25C11.8578 15.4173 12.4407 15.1759 12.8705 14.7461C13.3002 14.3163 13.5417 13.7334 13.5417 13.1257V11.7973L16.3908 14.3348C17.0617 14.9323 18.125 14.4557 18.125 13.5565V6.13815C18.125 5.23815 17.0617 4.76232 16.3908 5.35982L13.5417 7.89732V6.87565C13.5417 6.26786 13.3002 5.68497 12.8705 5.2552C12.4407 4.82543 11.8578 4.58398 11.25 4.58398H4.16667Z" fill="#7E57C2"/>
</svg>
