<svg width="24" height="24" viewBox="0 0 24 24" fill="none" xmlns="http://www.w3.org/2000/svg">
<path d="M7.75 4C7.75 3.80109 7.67099 3.61032 7.53033 3.46967C7.38968 3.32902 7.19892 3.25 7 3.25C6.80109 3.25 6.61033 3.32902 6.46967 3.46967C6.32902 3.61032 6.25 3.80109 6.25 4V5.816C5.52046 5.91945 4.84482 6.25882 4.32624 6.78228C3.80765 7.30573 3.47463 7.98452 3.378 8.715L3.291 9.368C3.27634 9.478 3.26234 9.58867 3.249 9.7C3.24094 9.76928 3.24767 9.83948 3.26874 9.90597C3.28981 9.97245 3.32476 10.0337 3.37126 10.0857C3.41776 10.1377 3.47476 10.1792 3.5385 10.2075C3.60224 10.2358 3.67126 10.2503 3.741 10.25H20.26C20.3298 10.2503 20.3988 10.2358 20.4625 10.2075C20.5262 10.1792 20.5832 10.1377 20.6297 10.0857C20.6763 10.0337 20.7112 9.97245 20.7323 9.90597C20.7533 9.83948 20.7601 9.76928 20.752 9.7L20.71 9.368L20.623 8.715C20.5264 7.98452 20.1934 7.30573 19.6748 6.78228C19.1562 6.25882 18.4805 5.91945 17.751 5.816V4C17.751 3.80109 17.672 3.61032 17.5313 3.46967C17.3907 3.32902 17.1999 3.25 17.001 3.25C16.8021 3.25 16.6113 3.32902 16.4707 3.46967C16.33 3.61032 16.251 3.80109 16.251 4V5.668C13.4232 5.41664 10.5788 5.41664 7.751 5.668L7.75 4ZM20.945 12.226C20.9403 12.0978 20.886 11.9764 20.7934 11.8876C20.7008 11.7987 20.5773 11.7494 20.449 11.75H3.551C3.4227 11.7494 3.2992 11.7987 3.20663 11.8876C3.11405 11.9764 3.05968 12.0978 3.055 12.226C2.99587 14.0357 3.10636 15.8469 3.385 17.636C3.4877 18.2951 3.80645 18.9015 4.29118 19.3598C4.77591 19.8181 5.39915 20.1024 6.063 20.168L7.256 20.286C10.411 20.596 13.589 20.596 16.744 20.286L17.937 20.168C18.6009 20.1024 19.2241 19.8181 19.7088 19.3598C20.1936 18.9015 20.5123 18.2951 20.615 17.636C20.8937 15.8469 21.0041 14.0357 20.945 12.226Z" fill="#818181"/>
</svg>
